<svg width="52" height="52" viewBox="0 0 52 52" fill="none" xmlns="http://www.w3.org/2000/svg">
<rect x="0.5" y="0.5" width="51" height="51" rx="25.5" fill="#FED8C2"/>
<path d="M22.9875 29.818L22.5246 36.5197C23.1872 36.5197 23.4747 36.2243 23.8182 35.8735L26.9243 32.8199L33.3644 37.6699C34.5441 38.3456 35.3748 37.9892 35.694 36.5529L39.9201 16.1857C40.2953 14.3894 39.2892 13.6879 38.1393 14.1272L13.2994 23.9084C11.6045 24.5859 11.6306 25.557 13.012 25.9982L19.3624 28.0291L34.1129 18.5359C34.8073 18.0633 35.4382 18.3255 34.9193 18.7981L22.9875 29.818Z" fill="#C46026"/>
<rect x="0.5" y="0.5" width="51" height="51" rx="25.5" stroke="#FFCCAE"/>
</svg>
