<svg width="194" height="194" viewBox="0 0 194 194" fill="none" xmlns="http://www.w3.org/2000/svg">
<path d="M188.057 101.627C188.009 102.516 187.88 103.24 187.669 103.799C187.459 104.359 187.152 104.763 186.748 105.011C186.353 105.271 185.851 105.384 185.242 105.351C184.833 105.329 184.463 105.228 184.132 105.05C183.8 104.882 183.528 104.637 183.315 104.315C183.112 103.994 182.983 103.606 182.927 103.152L182.882 103.15C182.765 103.664 182.591 104.091 182.363 104.429C182.134 104.777 181.834 105.031 181.465 105.191C181.106 105.352 180.677 105.419 180.177 105.392C179.488 105.355 178.923 105.164 178.481 104.82C178.048 104.486 177.738 104.029 177.549 103.447C177.369 102.877 177.3 102.217 177.34 101.468L177.522 98.0983L188.217 98.6765L188.057 101.627ZM183.328 101.582C183.274 102.57 183.406 103.288 183.722 103.736C184.038 104.184 184.531 104.426 185.2 104.462C185.889 104.499 186.396 104.291 186.721 103.838C187.046 103.385 187.236 102.639 187.293 101.601L187.406 99.504L183.452 99.2901L183.328 101.582ZM182.703 99.2496L178.224 99.0075L178.092 101.449C178.039 102.427 178.2 103.167 178.573 103.668C178.947 104.169 179.513 104.44 180.272 104.481C180.771 104.508 181.181 104.42 181.503 104.217C181.834 104.015 182.087 103.693 182.261 103.252C182.435 102.81 182.541 102.245 182.578 101.556L182.703 99.2496Z" fill="black"/>
<path d="M184.486 110.964C184.348 111.853 184.028 112.481 183.525 112.849C183.023 113.216 182.298 113.326 181.349 113.179L176.057 112.357L176.156 111.72L177.513 111.779L177.52 111.734C177.253 111.5 177.025 111.242 176.836 110.96C176.655 110.689 176.528 110.371 176.453 110.005C176.386 109.651 176.392 109.226 176.468 108.732C176.545 108.238 176.696 107.821 176.921 107.482C177.155 107.144 177.451 106.901 177.808 106.754C178.164 106.607 178.58 106.571 179.054 106.644C179.835 106.765 180.378 107.179 180.683 107.884C180.999 108.591 181.091 109.561 180.96 110.796L180.796 112.243L181.359 112.33C182.14 112.451 182.713 112.378 183.078 112.111C183.452 111.856 183.686 111.421 183.781 110.809C183.844 110.404 183.851 110.005 183.8 109.612C183.758 109.231 183.672 108.839 183.543 108.434L184.251 108.271C184.382 108.666 184.473 109.094 184.522 109.558C184.572 110.021 184.56 110.489 184.486 110.964ZM180.324 110.788C180.429 109.782 180.367 109.009 180.137 108.467C179.918 107.927 179.506 107.61 178.904 107.516C178.419 107.441 178.025 107.537 177.721 107.803C177.426 108.071 177.238 108.467 177.157 108.991C177.026 109.831 177.159 110.509 177.554 111.026C177.948 111.553 178.564 111.886 179.403 112.026L180.173 112.146L180.324 110.788Z" fill="black"/>
<path d="M183.47 117.073C183.19 117 182.891 116.918 182.574 116.825C182.267 116.736 182.014 116.655 181.815 116.583L181.8 116.641C182.196 116.95 182.482 117.359 182.66 117.87C182.845 118.393 182.849 118.994 182.674 119.671C182.418 120.659 181.88 121.341 181.06 121.717C180.247 122.106 179.182 122.13 177.865 121.789C177.052 121.578 176.378 121.27 175.843 120.863C175.305 120.465 174.931 119.976 174.72 119.394C174.516 118.825 174.505 118.187 174.688 117.48C174.856 116.832 175.129 116.334 175.508 115.988C175.884 115.652 176.291 115.437 176.729 115.344L176.747 115.271L175.54 114.788L175.698 114.178L186.734 117.034L186.52 117.862L183.47 117.073ZM181.993 119.371C182.145 118.78 182.145 118.264 181.991 117.821C181.834 117.388 181.537 117.022 181.098 116.722C180.656 116.432 180.077 116.195 179.361 116.009L179.259 115.983C178.214 115.712 177.367 115.69 176.72 115.915C176.08 116.152 175.649 116.701 175.426 117.563C175.211 118.396 175.335 119.094 175.798 119.658C176.259 120.232 177.022 120.657 178.087 120.932C179.181 121.215 180.05 121.228 180.695 120.972C181.35 120.718 181.782 120.184 181.993 119.371Z" fill="black"/>
<path d="M181.378 123.861L181.066 124.722L175.754 124.807C175.444 124.811 175.156 124.813 174.891 124.813C174.625 124.812 174.377 124.807 174.146 124.798C173.925 124.792 173.721 124.782 173.535 124.768L173.519 124.81C173.712 124.955 173.957 125.144 174.254 125.38C174.561 125.619 174.89 125.887 175.239 126.184L179.288 129.629L178.976 130.489L171.36 123.9C170.989 123.574 170.686 123.252 170.451 122.932C170.215 122.613 170.069 122.283 170.011 121.943C169.944 121.6 169.982 121.231 170.126 120.836C170.19 120.657 170.264 120.498 170.347 120.358C170.417 120.224 170.494 120.098 170.58 119.98L171.257 120.225C171.184 120.337 171.116 120.451 171.053 120.566C170.977 120.687 170.91 120.828 170.852 120.988C170.757 121.251 170.73 121.502 170.771 121.74C170.803 121.975 170.905 122.209 171.076 122.441C171.237 122.67 171.461 122.905 171.745 123.146L172.836 124.1L181.378 123.861Z" fill="black"/>
<path d="M175.461 143.997L167.209 136.576L167.601 135.799L175.645 137.336C175.828 137.372 176.003 137.404 176.168 137.432C176.338 137.473 176.499 137.509 176.651 137.541C176.812 137.577 176.952 137.609 177.073 137.636C177.203 137.668 177.317 137.697 177.415 137.725C177.335 137.662 177.245 137.594 177.147 137.522C177.049 137.45 176.947 137.365 176.84 137.266C176.737 137.181 176.628 137.087 176.512 136.983C176.396 136.88 176.275 136.775 176.151 136.667L169.992 131.058L170.377 130.294L181.236 132.546L180.831 133.349L173.397 131.767C173.183 131.726 172.981 131.681 172.794 131.631C172.602 131.59 172.416 131.547 172.237 131.501C172.068 131.461 171.9 131.415 171.735 131.366C171.565 131.325 171.402 131.282 171.246 131.236C171.384 131.34 171.522 131.443 171.66 131.546C171.794 131.659 171.932 131.773 172.075 131.89C172.222 132.02 172.369 132.15 172.517 132.281C172.664 132.411 172.817 132.55 172.978 132.698L178.568 137.836L178.177 138.613L170.655 137.205C170.436 137.173 170.226 137.134 170.025 137.088C169.823 137.043 169.634 136.998 169.455 136.952C169.285 136.912 169.117 136.866 168.952 136.816C168.782 136.776 168.619 136.733 168.463 136.687C168.641 136.822 168.82 136.957 168.998 137.092C169.181 137.24 169.371 137.397 169.567 137.563C169.763 137.729 169.97 137.907 170.189 138.095L175.873 143.18L175.461 143.997Z" fill="black"/>
<path d="M170.486 146.55C169.986 147.299 169.431 147.734 168.821 147.855C168.211 147.977 167.506 147.771 166.708 147.238L162.254 144.265L162.612 143.729L163.818 144.353L163.843 144.316C163.699 143.991 163.601 143.661 163.549 143.326C163.499 143.004 163.517 142.661 163.603 142.298C163.692 141.949 163.876 141.566 164.153 141.15C164.431 140.734 164.743 140.42 165.09 140.206C165.445 139.999 165.815 139.903 166.201 139.92C166.586 139.937 166.979 140.079 167.378 140.345C168.035 140.784 168.354 141.387 168.334 142.156C168.322 142.929 167.997 143.849 167.358 144.913L166.6 146.157L167.074 146.473C167.731 146.912 168.282 147.087 168.726 146.998C169.172 146.924 169.568 146.629 169.912 146.113C170.14 145.772 170.313 145.413 170.433 145.036C170.555 144.673 170.643 144.28 170.696 143.859L171.407 144.009C171.359 144.422 171.261 144.849 171.111 145.29C170.961 145.731 170.752 146.151 170.486 146.55ZM166.784 144.638C167.304 143.77 167.573 143.043 167.593 142.455C167.621 141.872 167.381 141.412 166.874 141.073C166.467 140.801 166.069 140.722 165.68 140.835C165.3 140.954 164.963 141.234 164.669 141.675C164.197 142.382 164.031 143.053 164.172 143.688C164.308 144.331 164.726 144.893 165.428 145.374L166.076 145.807L166.784 144.638Z" fill="black"/>
<path d="M160.498 146.515L161.019 145.837L170.063 152.776L169.543 153.455L160.498 146.515Z" fill="black"/>
<path d="M162.625 152.809C162.385 152.598 162.136 152.373 161.88 152.135C161.63 151.903 161.381 151.672 161.132 151.44L161.113 151.462C161.136 151.603 161.16 151.75 161.184 151.904C161.216 152.065 161.241 152.226 161.258 152.388C161.284 152.557 161.305 152.715 161.321 152.863L161.816 157.326L161.143 158.093L160.659 153.459L154.966 153.034L155.638 152.268L160.627 152.653L160.483 150.93L158.407 149.11L158.961 148.478L167.532 155.995L166.978 156.627L162.625 152.809Z" fill="black"/>
<path d="M152.282 158.516C151.949 158.171 151.75 157.793 151.687 157.381C151.624 156.97 151.695 156.54 151.902 156.091C152.115 155.649 152.459 155.199 152.934 154.741C153.33 154.359 153.717 154.055 154.096 153.829C154.475 153.602 154.821 153.435 155.134 153.328L155.707 153.922C155.323 154.042 154.927 154.215 154.52 154.441C154.12 154.674 153.754 154.951 153.423 155.27C152.847 155.825 152.523 156.318 152.452 156.748C152.387 157.185 152.515 157.569 152.834 157.901C153.042 158.117 153.274 158.234 153.528 158.253C153.782 158.286 154.08 158.241 154.421 158.12C154.763 158.013 155.162 157.851 155.618 157.633C156.089 157.415 156.52 157.236 156.912 157.094C157.31 156.96 157.679 156.917 158.017 156.966C158.356 157.014 158.688 157.208 159.015 157.546C159.459 158.007 159.619 158.547 159.494 159.167C159.37 159.787 158.995 160.399 158.368 161.003C158.023 161.337 157.671 161.613 157.314 161.833C156.949 162.06 156.592 162.237 156.243 162.365L155.97 161.649C156.176 161.575 156.394 161.477 156.622 161.353C156.858 161.238 157.083 161.104 157.298 160.952C157.513 160.8 157.714 160.634 157.901 160.454C158.354 160.016 158.631 159.597 158.73 159.196C158.829 158.795 158.733 158.443 158.441 158.14C158.219 157.91 157.985 157.782 157.738 157.756C157.49 157.745 157.206 157.803 156.886 157.932C156.558 158.067 156.17 158.233 155.72 158.43C155.271 158.641 154.847 158.814 154.449 158.948C154.043 159.089 153.664 159.136 153.311 159.087C152.951 159.045 152.608 158.855 152.282 158.516Z" fill="black"/>
<path d="M150.727 170.796C150.008 171.32 149.364 171.677 148.798 171.866C148.231 172.056 147.723 172.073 147.276 171.916C146.826 171.773 146.421 171.456 146.062 170.962C145.821 170.631 145.665 170.28 145.595 169.911C145.516 169.548 145.534 169.182 145.65 168.814C145.771 168.454 145.99 168.109 146.307 167.779L146.281 167.743C145.807 167.976 145.367 168.111 144.96 168.147C144.546 168.189 144.16 168.117 143.802 167.932C143.451 167.755 143.128 167.464 142.834 167.06C142.428 166.502 142.219 165.943 142.208 165.382C142.194 164.836 142.352 164.306 142.684 163.793C143.013 163.294 143.481 162.824 144.088 162.382L146.817 160.397L153.117 169.058L150.727 170.796ZM147.778 167.099C146.977 167.681 146.503 168.236 146.356 168.764C146.208 169.292 146.331 169.827 146.725 170.369C147.131 170.927 147.612 171.189 148.169 171.155C148.725 171.121 149.424 170.798 150.265 170.187L151.963 168.951L149.634 165.749L147.778 167.099ZM149.193 165.142L146.555 161.515L144.577 162.954C143.785 163.53 143.312 164.121 143.159 164.727C143.006 165.333 143.153 165.943 143.601 166.558C143.895 166.962 144.222 167.225 144.582 167.346C144.948 167.476 145.357 167.469 145.81 167.325C146.262 167.182 146.767 166.907 147.325 166.501L149.193 165.142Z" fill="black"/>
<path d="M141.189 173.931C140.412 174.386 139.723 174.535 139.121 174.378C138.519 174.22 137.975 173.728 137.49 172.899L134.783 168.279L135.34 167.953L136.152 169.042L136.19 169.019C136.203 168.664 136.259 168.324 136.358 167.999C136.454 167.688 136.62 167.388 136.856 167.099C137.089 166.824 137.421 166.56 137.853 166.307C138.284 166.054 138.702 165.908 139.107 165.867C139.518 165.836 139.892 165.912 140.232 166.095C140.571 166.279 140.862 166.578 141.105 166.992C141.504 167.674 141.527 168.356 141.173 169.038C140.825 169.729 140.131 170.414 139.091 171.092L137.866 171.879L138.154 172.371C138.553 173.053 138.972 173.451 139.41 173.565C139.844 173.693 140.329 173.601 140.864 173.287C141.217 173.08 141.53 172.833 141.803 172.546C142.071 172.273 142.322 171.958 142.554 171.602L143.128 172.048C142.905 172.399 142.629 172.74 142.301 173.071C141.974 173.402 141.603 173.689 141.189 173.931ZM138.695 170.594C139.541 170.04 140.102 169.504 140.376 168.983C140.656 168.472 140.642 167.953 140.334 167.426C140.086 167.004 139.763 166.758 139.364 166.691C138.97 166.632 138.544 166.736 138.087 167.004C137.354 167.434 136.912 167.965 136.761 168.598C136.601 169.236 136.732 169.924 137.153 170.663L137.548 171.336L138.695 170.594Z" fill="black"/>
<path d="M135.839 176.969C135.718 176.706 135.594 176.422 135.465 176.118C135.341 175.823 135.244 175.576 135.175 175.376L135.12 175.401C135.13 175.903 134.993 176.384 134.709 176.844C134.42 177.318 133.958 177.7 133.321 177.992C132.394 178.417 131.526 178.43 130.716 178.032C129.901 177.646 129.21 176.835 128.643 175.599C128.293 174.836 128.107 174.118 128.085 173.446C128.054 172.778 128.197 172.179 128.515 171.648C128.827 171.131 129.315 170.72 129.979 170.416C130.588 170.136 131.146 170.034 131.654 170.11C132.152 170.189 132.576 170.369 132.924 170.649L132.993 170.618L132.605 169.376L133.177 169.114L137.93 179.476L137.152 179.833L135.839 176.969ZM133.124 177.274C133.679 177.02 134.079 176.693 134.325 176.294C134.562 175.899 134.658 175.437 134.613 174.908C134.559 174.382 134.378 173.783 134.07 173.111L134.026 173.015C133.576 172.034 133.059 171.363 132.476 171.003C131.888 170.657 131.19 170.669 130.381 171.04C129.599 171.398 129.136 171.935 128.991 172.651C128.837 173.371 128.989 174.23 129.448 175.23C129.919 176.258 130.457 176.94 131.063 177.278C131.674 177.625 132.361 177.624 133.124 177.274Z" fill="black"/>
<path d="M129.224 179.628L128.361 179.93L124.938 175.868C124.738 175.63 124.555 175.408 124.387 175.202C124.22 174.996 124.067 174.8 123.928 174.616C123.792 174.441 123.671 174.276 123.565 174.123L123.522 174.138C123.532 174.378 123.54 174.688 123.545 175.067C123.554 175.456 123.554 175.88 123.545 176.339L123.433 181.654L122.57 181.956L122.863 171.889C122.881 171.396 122.94 170.957 123.038 170.573C123.137 170.189 123.3 169.867 123.527 169.607C123.751 169.338 124.061 169.135 124.457 168.996C124.637 168.933 124.807 168.89 124.968 168.865C125.116 168.834 125.263 168.815 125.408 168.806L125.646 169.486C125.513 169.501 125.382 169.52 125.253 169.544C125.111 169.562 124.96 169.599 124.799 169.655C124.535 169.748 124.323 169.885 124.165 170.068C124.003 170.241 123.886 170.467 123.814 170.746C123.739 171.016 123.698 171.338 123.691 171.711L123.641 173.159L129.224 179.628Z" fill="black"/>
<path d="M109.861 187.734L110.417 176.65L111.267 176.464L115.147 183.677C115.234 183.842 115.319 183.997 115.402 184.143C115.478 184.3 115.551 184.448 115.622 184.586C115.695 184.734 115.759 184.863 115.814 184.974C115.871 185.095 115.92 185.202 115.961 185.295C115.959 185.193 115.955 185.081 115.949 184.96C115.943 184.838 115.945 184.705 115.954 184.56C115.955 184.426 115.96 184.282 115.967 184.127C115.974 183.972 115.98 183.812 115.985 183.647L116.455 175.33L117.29 175.147L122.39 184.995L121.511 185.187L118.051 178.42C117.948 178.228 117.856 178.043 117.777 177.866C117.687 177.691 117.604 177.52 117.526 177.353C117.451 177.195 117.38 177.037 117.315 176.877C117.239 176.719 117.17 176.566 117.106 176.416C117.113 176.588 117.12 176.761 117.127 176.933C117.125 177.108 117.123 177.287 117.122 177.472C117.114 177.668 117.106 177.864 117.097 178.061C117.089 178.257 117.078 178.464 117.064 178.682L116.602 186.261L115.752 186.446L112.102 179.721C111.989 179.53 111.886 179.343 111.795 179.158C111.703 178.974 111.618 178.798 111.541 178.63C111.466 178.473 111.395 178.314 111.329 178.154C111.254 177.997 111.185 177.843 111.121 177.693C111.129 177.917 111.137 178.14 111.145 178.364C111.145 178.599 111.143 178.845 111.137 179.102C111.132 179.359 111.125 179.632 111.117 179.921L110.755 187.539L109.861 187.734Z" fill="black"/>
<path d="M104.719 185.475C103.822 185.558 103.135 185.401 102.656 185.004C102.177 184.606 101.894 183.93 101.805 182.974L101.31 177.642L101.952 177.582L102.226 178.912L102.271 178.908C102.433 178.592 102.627 178.308 102.855 178.056C103.074 177.814 103.351 177.613 103.688 177.451C104.015 177.3 104.428 177.202 104.926 177.155C105.423 177.109 105.864 177.154 106.249 177.289C106.634 177.434 106.941 177.661 107.171 177.971C107.4 178.282 107.537 178.676 107.582 179.154C107.655 179.94 107.386 180.568 106.777 181.036C106.169 181.514 105.25 181.841 104.021 182.015L102.578 182.209L102.63 182.777C102.703 183.563 102.914 184.101 103.262 184.39C103.601 184.69 104.08 184.811 104.697 184.754C105.105 184.716 105.493 184.625 105.862 184.48C106.221 184.347 106.581 184.168 106.942 183.943L107.273 184.59C106.922 184.814 106.528 185.006 106.091 185.167C105.654 185.328 105.197 185.431 104.719 185.475ZM103.873 181.396C104.874 181.253 105.609 181.004 106.078 180.649C106.549 180.304 106.755 179.828 106.699 179.22C106.654 178.733 106.465 178.373 106.132 178.143C105.8 177.923 105.37 177.837 104.843 177.886C103.996 177.965 103.371 178.259 102.966 178.768C102.552 179.279 102.379 179.958 102.447 180.805L102.519 181.582L103.873 181.396Z" fill="black"/>
<path d="M98.4531 177.696L99.3078 177.673L99.6158 189.069L98.7611 189.092L98.4531 177.696Z" fill="black"/>
<path d="M94.6653 183.306C94.6777 182.987 94.6956 182.652 94.7191 182.303C94.7422 181.963 94.7653 181.624 94.7884 181.285L94.7585 181.283C94.6643 181.39 94.5649 181.501 94.4604 181.617C94.3554 181.743 94.2457 181.864 94.1311 181.98C94.0162 182.105 93.9066 182.221 93.8025 182.327L90.6468 185.523L89.6276 185.484L92.9222 182.188L89.6657 177.499L90.6849 177.538L93.5282 181.656L94.7753 180.458L94.8818 177.701L95.7212 177.733L95.2813 189.124L94.4419 189.092L94.6653 183.306Z" fill="black"/>
<path d="M83.7305 178.855C83.7896 178.379 83.9591 177.987 84.2391 177.679C84.5191 177.371 84.8984 177.156 85.3771 177.034C85.8545 176.922 86.4207 176.906 87.0757 176.988C87.6215 177.055 88.1016 177.165 88.5161 177.317C88.9305 177.469 89.278 177.633 89.5585 177.809L89.457 178.628C89.1219 178.405 88.7384 178.206 88.3066 178.032C87.8735 177.867 87.4287 177.757 86.9722 177.7C86.1783 177.602 85.5917 177.66 85.2124 177.875C84.8318 178.1 84.6132 178.441 84.5567 178.897C84.5198 179.195 84.574 179.449 84.7193 179.658C84.8535 179.876 85.0751 180.08 85.3842 180.27C85.682 180.468 86.0593 180.676 86.516 180.893C86.9814 181.122 87.3922 181.345 87.7484 181.56C88.1033 181.786 88.3684 182.045 88.5436 182.339C88.7188 182.633 88.7775 183.013 88.7197 183.479C88.641 184.114 88.3214 184.579 87.7611 184.872C87.2008 185.165 86.4889 185.258 85.6255 185.151C85.1492 185.092 84.7131 184.993 84.3173 184.853C83.9115 184.712 83.5492 184.546 83.2302 184.356L83.6146 183.693C83.802 183.807 84.0155 183.914 84.255 184.014C84.4933 184.124 84.7389 184.215 84.992 184.287C85.2451 184.358 85.5007 184.41 85.7587 184.442C86.384 184.52 86.8838 184.471 87.2582 184.296C87.6326 184.12 87.8456 183.824 87.8973 183.407C87.9366 183.09 87.8886 182.827 87.7532 182.619C87.6066 182.419 87.3825 182.235 87.081 182.067C86.7695 181.897 86.3959 181.7 85.9603 181.475C85.5136 181.258 85.1127 181.037 84.7577 180.812C84.3928 180.585 84.1184 180.319 83.9345 180.014C83.7407 179.708 83.6727 179.322 83.7305 178.855Z" fill="black"/>
<path d="M73.2123 185.36C72.3524 185.131 71.6703 184.855 71.166 184.534C70.6617 184.214 70.3294 183.83 70.1692 183.383C69.9966 182.944 69.989 182.43 70.1463 181.84C70.2521 181.444 70.4261 181.103 70.6683 180.815C70.901 180.526 71.1967 180.309 71.5555 180.167C71.9118 180.035 72.3176 179.988 72.773 180.026L72.7846 179.983C72.3054 179.762 71.9238 179.505 71.6398 179.212C71.3461 178.916 71.1588 178.571 71.0777 178.177C70.9941 177.792 71.0167 177.358 71.1457 176.875C71.3236 176.208 71.6265 175.694 72.0543 175.332C72.4699 174.977 72.9814 174.767 73.5888 174.702C74.184 174.643 74.844 174.711 75.5686 174.904L78.8294 175.775L76.0674 186.122L73.2123 185.36ZM74.228 180.741C73.2715 180.485 72.5416 180.467 72.0385 180.684C71.5354 180.902 71.1974 181.334 71.0246 181.982C70.8467 182.648 70.9461 183.187 71.3228 183.598C71.6995 184.009 72.3903 184.349 73.3951 184.617L75.4241 185.159L76.4453 181.333L74.228 180.741ZM76.6388 180.608L77.7954 176.275L75.4331 175.644C74.4863 175.391 73.7294 175.396 73.1625 175.659C72.5956 175.922 72.2141 176.42 72.0181 177.155C71.8891 177.638 71.891 178.057 72.0236 178.414C72.1536 178.779 72.4167 179.093 72.8128 179.354C73.2089 179.615 73.7402 179.834 74.4069 180.012L76.6388 180.608Z" fill="black"/>
<path d="M64.7378 179.881C63.8976 179.558 63.3509 179.113 63.0978 178.545C62.8447 177.976 62.8901 177.244 63.2341 176.348L65.1529 171.348L65.7551 171.579L65.4114 172.893L65.4534 172.909C65.7383 172.697 66.0386 172.529 66.3544 172.404C66.6573 172.284 66.9955 172.227 67.3688 172.231C67.7292 172.24 68.1428 172.335 68.6096 172.514C69.0764 172.693 69.4521 172.929 69.7366 173.22C70.0175 173.52 70.1922 173.861 70.2607 174.24C70.3292 174.62 70.2774 175.034 70.1054 175.482C69.8224 176.22 69.3039 176.663 68.5502 176.813C67.7929 176.973 66.8246 176.858 65.6455 176.47L64.2656 176.004L64.0613 176.536C63.7783 177.274 63.7288 177.849 63.9128 178.263C64.084 178.682 64.459 179.003 65.0378 179.225C65.4206 179.372 65.8091 179.462 66.2033 179.495C66.5846 179.535 66.9866 179.534 67.4095 179.492L67.4197 180.219C67.0061 180.264 66.5678 180.262 66.1047 180.213C65.6416 180.164 65.186 180.053 64.7378 179.881ZM65.7872 175.849C66.748 176.164 67.5174 176.267 68.0953 176.157C68.6696 176.056 69.066 175.721 69.2846 175.151C69.4601 174.694 69.4498 174.288 69.2536 173.934C69.0537 173.59 68.7064 173.322 68.2116 173.133C67.418 172.828 66.727 172.814 66.1385 173.092C65.5406 173.366 65.0847 173.898 64.7708 174.688L64.4913 175.416L65.7872 175.849Z" fill="black"/>
<path d="M59.0622 177.636C59.1918 177.377 59.3349 177.102 59.4913 176.811C59.6433 176.529 59.7752 176.299 59.8869 176.12L59.8333 176.093C59.4487 176.415 58.9882 176.61 58.4515 176.677C57.9015 176.749 57.3133 176.628 56.6872 176.315C55.7747 175.859 55.22 175.191 55.023 174.31C54.8126 173.433 55.0114 172.387 55.6193 171.17C55.9948 170.419 56.4374 169.824 56.9471 169.385C57.4478 168.943 58.0046 168.679 58.6172 168.593C59.2165 168.513 59.8426 168.636 60.4956 168.962C61.095 169.261 61.5244 169.633 61.7839 170.075C62.0344 170.513 62.1597 170.956 62.1599 171.403L62.2269 171.437L62.9512 170.357L63.5147 170.638L58.419 180.836L57.6542 180.454L59.0622 177.636ZM57.1231 175.711C57.6687 175.984 58.1741 176.091 58.6392 176.033C59.0953 175.97 59.5157 175.755 59.9002 175.389C60.2757 175.017 60.6289 174.501 60.9597 173.839L61.0066 173.745C61.4894 172.779 61.6882 171.956 61.603 171.276C61.5045 170.601 61.0571 170.064 60.261 169.666C59.4917 169.282 58.7829 169.258 58.1345 169.593C57.4772 169.924 56.9027 170.582 56.411 171.566C55.9059 172.577 55.7115 173.424 55.828 174.108C55.94 174.801 56.3716 175.336 57.1231 175.711Z" fill="black"/>
<path d="M52.8236 174.148L52.048 173.663L53.0805 168.452C53.1411 168.147 53.1997 167.866 53.256 167.606C53.3124 167.346 53.3693 167.105 53.4267 166.881C53.4788 166.666 53.5314 166.469 53.5845 166.29L53.5464 166.266C53.365 166.424 53.1279 166.623 52.8352 166.865C52.5372 167.115 52.2063 167.379 51.8425 167.659L47.6235 170.893L46.8479 170.408L54.8897 164.346C55.2864 164.052 55.6655 163.823 56.027 163.66C56.3886 163.497 56.7417 163.423 57.0861 163.438C57.4359 163.445 57.7888 163.559 58.1448 163.782C58.3059 163.883 58.4463 163.989 58.566 164.099C58.6825 164.196 58.7895 164.298 58.8869 164.406L58.5049 165.016C58.4106 164.922 58.3137 164.832 58.2141 164.746C58.1114 164.646 57.9879 164.551 57.8438 164.461C57.6065 164.312 57.367 164.233 57.1253 164.224C56.889 164.205 56.6393 164.256 56.3763 164.374C56.1187 164.484 55.8419 164.653 55.546 164.881L54.3847 165.746L52.8236 174.148Z" fill="black"/>
<path d="M34.4068 164.188L43.3799 157.656L44.0584 158.201L40.884 165.751C40.8104 165.923 40.743 166.087 40.6818 166.243C40.6066 166.4 40.5377 166.55 40.475 166.692C40.406 166.842 40.3457 166.973 40.294 167.085C40.236 167.206 40.1835 167.311 40.1365 167.401C40.2147 167.336 40.2991 167.263 40.3899 167.182C40.4806 167.1 40.5853 167.018 40.7042 166.934C40.8089 166.851 40.9238 166.764 41.0489 166.672C41.174 166.58 41.3022 166.484 41.4336 166.384L48.1996 161.525L48.8664 162.06L44.4089 172.215L43.707 171.652L46.7984 164.708C46.8831 164.507 46.9693 164.32 47.057 164.147C47.1369 163.967 47.2176 163.795 47.2991 163.629C47.3743 163.472 47.4534 163.317 47.5364 163.166C47.6116 163.008 47.6876 162.858 47.7644 162.714C47.6346 162.828 47.5048 162.942 47.375 163.055C47.2374 163.163 47.0966 163.274 46.9528 163.39C46.7948 163.507 46.6369 163.624 46.479 163.74C46.3211 163.857 46.153 163.979 45.9748 164.105L39.7881 168.507L39.1096 167.962L42.0489 160.897C42.1257 160.689 42.2073 160.492 42.2935 160.304C42.3796 160.117 42.4635 159.941 42.5449 159.775C42.6202 159.618 42.6993 159.463 42.7823 159.312C42.8575 159.154 42.9335 159.004 43.0102 158.86C42.8413 159.007 42.6724 159.153 42.5035 159.3C42.3206 159.448 42.1275 159.6 41.9242 159.758C41.7209 159.915 41.5043 160.081 41.2745 160.256L35.1204 164.76L34.4068 164.188Z" fill="black"/>
<path d="M32.9729 158.821C32.3435 158.178 32.0321 157.545 32.0389 156.923C32.0457 156.301 32.3922 155.654 33.0784 154.983L36.906 151.238L37.357 151.699L36.497 152.75L36.5285 152.782C36.8758 152.708 37.2191 152.68 37.5583 152.698C37.8834 152.716 38.2148 152.804 38.5525 152.963C38.876 153.122 39.2127 153.381 39.5623 153.738C39.912 154.095 40.1555 154.466 40.2927 154.849C40.4228 155.24 40.4399 155.622 40.3439 155.995C40.2479 156.369 40.0283 156.724 39.6852 157.059C39.1206 157.612 38.4644 157.799 37.7168 157.621C36.962 157.451 36.1296 156.943 35.2195 156.099L34.159 155.101L33.7516 155.499C33.1869 156.052 32.9021 156.554 32.8972 157.007C32.8781 157.459 33.0854 157.907 33.519 158.35C33.8057 158.643 34.1213 158.887 34.4657 159.082C34.7959 159.276 35.1618 159.443 35.5634 159.581L35.2697 160.247C34.8751 160.115 34.4776 159.93 34.0771 159.693C33.6767 159.455 33.3086 159.164 32.9729 158.821ZM35.6068 155.594C36.3489 156.281 37.0056 156.694 37.5769 156.835C38.141 156.983 38.641 156.843 39.077 156.416C39.4273 156.074 39.5869 155.701 39.556 155.297C39.5178 154.901 39.3135 154.513 38.9428 154.134C38.3483 153.527 37.7258 153.227 37.0751 153.234C36.4175 153.234 35.7814 153.527 35.1668 154.114L34.6093 154.66L35.6068 155.594Z" fill="black"/>
<path d="M35.0318 149.008L35.5862 149.659L26.907 157.05L26.3526 156.399L35.0318 149.008Z" fill="black"/>
<path d="M28.5053 149.875C28.7613 149.683 29.0323 149.486 29.3183 149.284C29.5963 149.088 29.8743 148.892 30.1523 148.696L30.1343 148.672C29.9923 148.666 29.8433 148.659 29.6873 148.651C29.5233 148.649 29.3603 148.64 29.1983 148.624C29.0283 148.614 28.8693 148.602 28.7213 148.588L24.2513 148.153L23.6393 147.337L28.2743 147.817L29.8613 142.333L30.4733 143.149L29.0693 147.952L30.7853 148.165L32.9933 146.509L33.4973 147.181L24.3773 154.021L23.8733 153.349L28.5053 149.875Z" fill="black"/>
<path d="M25.0528 138.575C25.4597 138.32 25.8708 138.204 26.2864 138.227C26.7019 138.25 27.108 138.409 27.5047 138.703C27.8928 139.003 28.262 139.433 28.6122 139.992C28.9041 140.458 29.1217 140.9 29.2651 141.318C29.4085 141.735 29.5004 142.108 29.541 142.437L28.8417 142.875C28.8032 142.474 28.7155 142.051 28.5784 141.606C28.4329 141.166 28.2381 140.751 27.994 140.361C27.5695 139.683 27.1542 139.265 26.7481 139.106C26.3335 138.953 25.9313 138.998 25.5414 139.242C25.2871 139.401 25.1246 139.603 25.0537 139.848C24.9691 140.09 24.9508 140.391 24.9987 140.75C25.0329 141.106 25.1095 141.53 25.2286 142.022C25.3445 142.527 25.4312 142.986 25.4887 143.398C25.5378 143.816 25.5036 144.185 25.3862 144.507C25.2688 144.828 25.0109 145.113 24.6125 145.363C24.07 145.702 23.5082 145.747 22.9272 145.497C22.3461 145.248 21.8248 144.754 21.3631 144.017C21.1085 143.61 20.9105 143.209 20.7692 142.814C20.6226 142.41 20.5227 142.024 20.4695 141.656L21.2262 141.536C21.2561 141.754 21.3076 141.987 21.3809 142.236C21.4458 142.49 21.5302 142.738 21.6343 142.98C21.7383 143.221 21.8594 143.452 21.9973 143.673C22.3316 144.207 22.6848 144.564 23.057 144.744C23.4292 144.924 23.7933 144.902 24.1493 144.679C24.4205 144.51 24.5942 144.306 24.6704 144.07C24.7327 143.83 24.7341 143.54 24.6745 143.2C24.6096 142.852 24.5272 142.437 24.4272 141.957C24.3134 141.474 24.232 141.023 24.1829 140.606C24.1286 140.18 24.1617 139.799 24.2823 139.464C24.3976 139.121 24.6544 138.824 25.0528 138.575Z" fill="black"/>
<path d="M13.3532 134.491C12.9913 133.678 12.7766 132.974 12.7093 132.38C12.6419 131.786 12.7315 131.287 12.978 130.882C13.2113 130.471 13.6066 130.142 14.1638 129.894C14.5384 129.727 14.9135 129.648 15.2892 129.656C15.6608 129.655 16.0147 129.749 16.3509 129.938C16.678 130.132 16.9695 130.418 17.2256 130.797L17.2667 130.779C17.1375 130.267 17.0976 129.809 17.1472 129.403C17.1926 128.989 17.3432 128.627 17.5989 128.316C17.8454 128.009 18.1971 127.754 18.6539 127.551C19.2843 127.27 19.8746 127.182 20.425 127.288C20.9622 127.388 21.4472 127.654 21.8799 128.085C22.2995 128.511 22.6618 129.067 22.9668 129.752L24.3393 132.835L14.5549 137.191L13.3532 134.491ZM17.5844 132.378C17.1818 131.473 16.7378 130.894 16.2523 130.639C15.7668 130.384 15.2181 130.393 14.606 130.666C13.9756 130.947 13.6189 131.362 13.536 131.914C13.453 132.465 13.623 133.216 14.046 134.166L14.9 136.085L18.5177 134.474L17.5844 132.378ZM19.2029 134.169L23.3003 132.345L22.306 130.112C21.9075 129.216 21.4279 128.631 20.8673 128.355C20.3067 128.079 19.6792 128.096 18.9849 128.405C18.5281 128.608 18.2028 128.873 18.0091 129.2C17.8062 129.531 17.7277 129.933 17.7737 130.405C17.8197 130.877 17.9829 131.429 18.2635 132.059L19.2029 134.169Z" fill="black"/>
<path d="M12.2839 124.539C12.0029 123.684 12.0026 122.979 12.2832 122.423C12.5638 121.868 13.1601 121.44 14.0721 121.141L19.1593 119.468L19.3607 120.081L18.1251 120.645L18.1391 120.688C18.4835 120.775 18.8039 120.901 19.1005 121.067C19.3844 121.226 19.6428 121.452 19.8756 121.744C20.0958 122.029 20.2839 122.409 20.4401 122.884C20.5962 123.359 20.6513 123.799 20.6053 124.204C20.5499 124.611 20.3966 124.962 20.1456 125.255C19.8946 125.548 19.541 125.769 19.085 125.919C18.3345 126.166 17.6631 126.045 17.0706 125.555C16.4686 125.069 15.9455 124.246 15.5013 123.087L14.9899 121.723L14.4484 121.901C13.6979 122.148 13.2207 122.473 13.0166 122.877C12.7999 123.275 12.7884 123.768 12.982 124.357C13.11 124.746 13.2856 125.105 13.5088 125.431C13.7193 125.751 13.9742 126.062 14.2733 126.364L13.7164 126.831C13.4203 126.539 13.1451 126.198 12.8905 125.808C12.636 125.418 12.4338 124.995 12.2839 124.539ZM16.0717 122.804C16.4346 123.748 16.8413 124.409 17.292 124.788C17.7331 125.169 18.2434 125.264 18.8229 125.074C19.2884 124.921 19.5963 124.656 19.7465 124.281C19.8871 123.908 19.8747 123.47 19.7092 122.967C19.4438 122.159 19.0176 121.615 18.4306 121.334C17.8404 121.044 17.14 121.027 16.3294 121.283L15.5884 121.526L16.0717 122.804Z" fill="black"/>
<path d="M10.4357 118.719C10.7188 118.656 11.0225 118.594 11.3468 118.532C11.6613 118.472 11.9232 118.429 12.1326 118.403L12.1195 118.345C11.6271 118.249 11.1855 118.015 10.7949 117.64C10.3924 117.259 10.1151 116.726 9.96301 116.043C9.7414 115.047 9.91032 114.195 10.4698 113.487C11.0173 112.771 11.9548 112.265 13.2823 111.97C14.1022 111.787 14.843 111.755 15.5047 111.874C16.1642 111.984 16.7202 112.249 17.1726 112.671C17.6131 113.085 17.9127 113.649 18.0713 114.361C18.2169 115.015 18.1997 115.583 18.0198 116.063C17.8378 116.534 17.5732 116.91 17.2262 117.193L17.2425 117.266L18.5376 117.147L18.6744 117.761L7.54674 120.238L7.36098 119.404L10.4357 118.719ZM10.7065 116.001C10.8391 116.596 11.0746 117.056 11.4131 117.38C11.7495 117.694 12.1812 117.885 12.7084 117.952C13.2334 118.01 13.857 117.958 14.5793 117.797L14.6818 117.774C15.736 117.54 16.5001 117.175 16.9739 116.68C17.4358 116.178 17.57 115.492 17.3767 114.623C17.1898 113.784 16.7617 113.218 16.0924 112.927C15.4209 112.626 14.5483 112.594 13.4746 112.833C12.3716 113.079 11.5913 113.463 11.1337 113.985C10.6664 114.509 10.524 115.181 10.7065 116.001Z" fill="black"/>
<path d="M9.19335 111.629L9.0808 110.721L13.7756 108.234C14.0499 108.089 14.3055 107.957 14.5426 107.837C14.7796 107.717 15.003 107.609 15.2127 107.512C15.4125 107.417 15.5986 107.333 15.7711 107.261L15.7656 107.217C15.5287 107.176 15.2243 107.118 14.8522 107.043C14.4703 106.969 14.0561 106.88 13.6097 106.774L8.43872 105.54L8.32617 104.632L18.1026 107.048C18.5812 107.17 18.9978 107.32 19.3524 107.498C19.7069 107.676 19.987 107.903 20.1926 108.18C20.4082 108.455 20.5418 108.801 20.5934 109.218C20.6168 109.407 20.6234 109.582 20.6133 109.745C20.6119 109.896 20.6 110.044 20.5775 110.187L19.863 110.276C19.8768 110.143 19.8856 110.011 19.8894 109.88C19.902 109.737 19.8978 109.581 19.8769 109.413C19.8425 109.135 19.7528 108.899 19.6079 108.706C19.4729 108.511 19.2764 108.349 19.0186 108.219C18.7707 108.089 18.465 107.981 18.1017 107.895L16.6974 107.54L9.19335 111.629Z" fill="black"/>
<path d="M5.29113 91.2231L16.0233 94.0504L16.03 94.9203L8.1726 97.2311C7.99299 97.2825 7.82338 97.3338 7.66377 97.385C7.49409 97.4263 7.3344 97.4676 7.18472 97.5087C7.02503 97.5499 6.8853 97.586 6.76554 97.617C6.63577 97.648 6.52097 97.6738 6.42113 97.6946C6.52128 97.7138 6.63143 97.733 6.75158 97.7521C6.87173 97.7711 7.00196 97.8001 7.14226 97.8391C7.27249 97.868 7.41276 97.902 7.56306 97.9408C7.71337 97.9796 7.86867 98.0184 8.02897 98.0572L16.071 100.23L16.0776 101.085L5.39014 104.048L5.3832 103.148L12.718 101.156C12.9276 101.094 13.1272 101.043 13.3169 101.001C13.5065 100.95 13.6911 100.904 13.8708 100.862C14.0405 100.821 14.2102 100.785 14.38 100.753C14.5497 100.712 14.7144 100.676 14.8742 100.644C14.7039 100.616 14.5337 100.587 14.3635 100.558C14.1932 100.52 14.0179 100.481 13.8376 100.442C13.6472 100.394 13.4568 100.345 13.2664 100.297C13.076 100.248 12.8756 100.195 12.6652 100.136L5.3444 98.1229L5.33769 97.253L12.671 95.0663C12.8805 94.9947 13.085 94.9331 13.2846 94.8815C13.4842 94.83 13.6739 94.7835 13.8536 94.7421C14.0232 94.7008 14.193 94.6645 14.3627 94.6332C14.5324 94.5919 14.6971 94.5556 14.8569 94.5244C14.6366 94.4861 14.4163 94.4478 14.196 94.4095C13.9656 94.3613 13.7252 94.3081 13.4747 94.2501C13.2243 94.192 12.9588 94.129 12.6783 94.0612L5.2982 92.1381L5.29113 91.2231Z" fill="black"/>
<path d="M8.59439 86.1164C8.70166 85.2228 8.99995 84.5838 9.48926 84.1994C9.97857 83.815 10.6998 83.68 11.653 83.7944L16.9698 84.4327L16.8929 85.0731L15.5346 85.0611L15.5293 85.1058C15.8045 85.3302 16.0414 85.5802 16.24 85.8558C16.4298 86.1204 16.5684 86.4341 16.6557 86.7971C16.7343 87.149 16.7439 87.5732 16.6843 88.0696C16.6247 88.566 16.4884 88.9878 16.2755 89.3349C16.0527 89.6808 15.7656 89.9334 15.4141 90.0926C15.0626 90.2519 14.6486 90.3029 14.172 90.2457C13.3876 90.1515 12.8306 89.7573 12.501 89.0631C12.1615 88.3676 12.0358 87.4008 12.1241 86.1625L12.2379 84.7107L11.672 84.6427C10.8876 84.5486 10.3175 84.6413 9.96164 84.9209C9.59704 85.1893 9.37779 85.6313 9.3039 86.2469C9.25503 86.654 9.26256 87.0527 9.32648 87.4431C9.38167 87.8224 9.48094 88.212 9.62429 88.612L8.92192 88.7996C8.77738 88.4096 8.67235 87.984 8.60684 87.5229C8.54133 87.0618 8.53718 86.593 8.59439 86.1164ZM12.7603 86.1482C12.6896 87.157 12.7783 87.928 13.0265 88.4614C13.2648 88.9936 13.6867 89.2961 14.2924 89.3688C14.7789 89.4272 15.1697 89.318 15.4648 89.0412C15.7499 88.7632 15.9241 88.3611 15.9873 87.8348C16.0886 86.9909 15.9327 86.3175 15.5197 85.8147C15.1079 85.302 14.4806 84.99 13.6379 84.8787L12.8634 84.7858L12.7603 86.1482Z" fill="black"/>
<path d="M17.4835 81.7659L17.3265 82.6064L6.1203 80.5133L6.27728 79.6729L17.4835 81.7659Z" fill="black"/>
<path d="M12.7393 77.0683C13.0494 77.1473 13.3728 77.2349 13.7095 77.3309C14.0365 77.4246 14.3635 77.5182 14.6905 77.6118L14.6979 77.5828C14.6135 77.4684 14.5255 77.3479 14.4339 77.2214C14.3327 77.0924 14.2374 76.9598 14.1483 76.8236C14.0495 76.6849 13.9591 76.5535 13.8772 76.4295L11.4129 72.6749L11.6647 71.6864L14.1975 75.5978L19.4643 73.3948L19.2125 74.3833L14.5909 76.3017L15.5011 77.7719L18.1756 78.4533L17.9683 79.2673L6.92113 76.4529L7.1285 75.6389L12.7393 77.0683Z" fill="black"/>
<path d="M19.3172 67.4468C19.7709 67.6035 20.1192 67.8508 20.3622 68.1887C20.6052 68.5266 20.7366 68.9423 20.7565 69.4358C20.767 69.9261 20.6645 70.4832 20.4489 71.107C20.2693 71.6269 20.0621 72.0737 19.8271 72.4474C19.5922 72.8212 19.3596 73.127 19.1293 73.3649L18.3495 73.0954C18.6372 72.814 18.9112 72.4801 19.1716 72.094C19.4225 71.7046 19.6231 71.2925 19.7733 70.8577C20.0346 70.1016 20.0995 69.5156 19.968 69.0999C19.8271 68.6809 19.5393 68.3963 19.1045 68.2461C18.8209 68.1482 18.5616 68.1485 18.3265 68.2471C18.0852 68.333 17.8398 68.5075 17.5903 68.7704C17.3345 69.0206 17.0527 69.3464 16.7447 69.7479C16.424 70.1555 16.1213 70.5111 15.8365 70.8148C15.5423 71.1152 15.2333 71.3205 14.9095 71.4308C14.5857 71.5411 14.2017 71.5196 13.7575 71.3661C13.1526 71.1571 12.7649 70.7481 12.5945 70.139C12.424 69.53 12.4808 68.8143 12.7649 67.992C12.9217 67.5383 13.1095 67.1324 13.3285 66.7742C13.5507 66.4067 13.7882 66.0867 14.041 65.8143L14.6094 66.3281C14.459 66.4877 14.3099 66.6743 14.1621 66.8877C14.0049 67.0979 13.8649 67.3193 13.7422 67.552C13.6195 67.7847 13.5157 68.0239 13.4308 68.2696C13.225 68.8651 13.169 69.3642 13.2626 69.7668C13.3563 70.1695 13.6016 70.4394 13.9986 70.5765C14.301 70.681 14.5682 70.6887 14.8 70.5995C15.0256 70.4976 15.2521 70.3166 15.4795 70.0566C15.7102 69.7872 15.9809 69.4628 16.2918 69.0835C16.5965 68.6916 16.896 68.3454 17.1902 68.045C17.4877 67.7352 17.8047 67.522 18.1412 67.4055C18.4809 67.2795 18.8729 67.2933 19.3172 67.4468Z" fill="black"/>
<path d="M15.2011 55.6593C15.6078 54.8677 16.0214 54.2594 16.4419 53.8347C16.8625 53.4099 17.3079 53.1665 17.7782 53.1045C18.2441 53.0291 18.7484 53.1307 19.291 53.4095C19.6557 53.5968 19.9527 53.8393 20.182 54.137C20.4159 54.4257 20.5644 54.7605 20.6273 55.1414C20.6814 55.5176 20.6412 55.9242 20.5067 56.361L20.5468 56.3816C20.8644 55.9602 21.1966 55.6418 21.5433 55.4264C21.8946 55.2021 22.2715 55.0922 22.6739 55.0965C23.0675 55.0963 23.4867 55.2105 23.9314 55.4389C24.5452 55.7542 24.9836 56.1592 25.2465 56.6541C25.5052 57.1354 25.6021 57.6799 25.5374 58.2874C25.4683 58.8815 25.2624 59.5121 24.9197 60.1792L23.3777 63.1813L13.851 58.2879L15.2011 55.6593ZM19.5 57.6314C19.9524 56.7508 20.1256 56.0416 20.0196 55.5037C19.9136 54.9659 19.5627 54.5439 18.9667 54.2378C18.3529 53.9225 17.8052 53.9054 17.3236 54.1864C16.842 54.4674 16.3637 55.0704 15.8885 55.9955L14.929 57.8635L18.4514 59.6729L19.5 57.6314ZM19.1186 60.0156L23.108 62.0648L24.2252 59.8899C24.673 59.0182 24.8286 58.2775 24.6921 57.6677C24.5556 57.058 24.1494 56.5795 23.4733 56.2323C23.0286 56.0038 22.6181 55.9166 22.2418 55.9707C21.8566 56.0202 21.4945 56.2108 21.1555 56.5425C20.8164 56.8743 20.4893 57.347 20.174 57.9608L19.1186 60.0156Z" fill="black"/>
<path d="M22.1598 48.7698C22.6485 48.0141 23.1971 47.5709 23.8055 47.4403C24.4139 47.3098 25.1212 47.5051 25.9273 48.0264L30.4241 50.9341L30.0739 51.4758L28.8588 50.8687L28.8343 50.9065C28.9831 51.2289 29.0862 51.5576 29.1436 51.8924C29.198 52.2134 29.1848 52.5561 29.1039 52.9206C29.02 53.2713 28.8423 53.6566 28.5709 54.0764C28.2994 54.4963 27.9918 54.8154 27.6481 55.0338C27.2961 55.2468 26.9272 55.3476 26.5415 55.3364C26.1557 55.3252 25.7613 55.1892 25.3583 54.9286C24.6949 54.4996 24.3675 53.9009 24.3762 53.1325C24.3764 52.3586 24.688 51.4347 25.3109 50.3608L26.0506 49.1064L25.572 48.7969C24.9086 48.368 24.3556 48.201 23.9132 48.2959C23.4677 48.3771 23.0767 48.6779 22.74 49.1986C22.5174 49.5429 22.3491 49.9044 22.2351 50.2833C22.1182 50.6483 22.0363 51.0419 21.9895 51.4642L21.2761 51.3244C21.3175 50.9105 21.4099 50.4821 21.5535 50.039C21.6971 49.596 21.8992 49.1729 22.1598 48.7698ZM25.8888 50.6274C25.3824 51.5026 25.1236 52.2344 25.1124 52.8226C25.0928 53.4053 25.3392 53.8623 25.8514 54.1936C26.2629 54.4596 26.662 54.5331 27.0486 54.414C27.4269 54.2894 27.7599 54.0046 28.0477 53.5595C28.5092 52.8457 28.6648 52.1723 28.5145 51.5392C28.3696 50.8977 27.943 50.342 27.2346 49.8721L26.5797 49.4485L25.8888 50.6274Z" fill="black"/>
<path d="M25.6035 43.5483C25.8304 43.729 26.0697 43.926 26.3216 44.1395C26.5657 44.3467 26.7636 44.5235 26.9154 44.67L26.9528 44.6231C26.7176 44.18 26.6229 43.689 26.6686 43.1502C26.7127 42.5972 26.9529 42.047 27.389 41.4995C28.0246 40.7016 28.7937 40.2979 29.6963 40.2882C30.5974 40.2645 31.5798 40.6763 32.6436 41.5237C33.3006 42.0471 33.7906 42.6036 34.1135 43.1933C34.4427 43.7751 34.5853 44.3745 34.5413 44.9915C34.4957 45.5944 34.2454 46.1814 33.7906 46.7524C33.3731 47.2764 32.9209 47.6194 32.434 47.7812C31.9533 47.9353 31.4942 47.9659 31.0567 47.8731L31.01 47.9318L31.9162 48.8646L31.5237 49.3574L22.607 42.2543L23.1397 41.5856L25.6035 43.5483ZM27.8892 42.0513C27.5091 42.5284 27.2992 43.0005 27.2596 43.4675C27.2262 43.9267 27.349 44.3825 27.6279 44.8348C27.913 45.2793 28.345 45.7321 28.9238 46.1932L29.0059 46.2586C29.8507 46.9315 30.6144 47.297 31.297 47.3549C31.978 47.3988 32.5957 47.0726 33.1503 46.3765C33.6861 45.7039 33.8573 45.0156 33.6637 44.3116C33.4764 43.5998 32.9525 42.9013 32.0921 42.2159C31.2083 41.5118 30.4196 41.1457 29.7262 41.1174C29.0249 41.083 28.4125 41.3943 27.8892 42.0513Z" fill="black"/>
<path d="M30.3529 38.1015L30.9881 37.4428L35.874 39.5288C36.1591 39.6509 36.4228 39.7663 36.6653 39.8751C36.9077 39.9838 37.1324 40.0894 37.3394 40.1917C37.5391 40.2871 37.7211 40.3792 37.8854 40.4682L37.9166 40.4358C37.7997 40.2258 37.6533 39.9526 37.4774 39.6163C37.2944 39.2731 37.1036 38.8947 36.9052 38.481L34.6115 33.6853L35.2466 33.0266L39.5178 42.1465C39.7239 42.5953 39.8694 43.0135 39.9543 43.4009C40.0391 43.7884 40.0386 44.1491 39.9527 44.483C39.874 44.8239 39.6889 45.1455 39.3974 45.4479C39.2655 45.5846 39.1332 45.7002 39.0006 45.7945C38.8821 45.8886 38.7598 45.9722 38.6338 46.0452L38.1156 45.5454C38.2274 45.4726 38.3356 45.3964 38.4403 45.3167C38.559 45.2368 38.6774 45.1356 38.7954 45.0132C38.9898 44.8117 39.1167 44.5937 39.1761 44.3592C39.2427 44.1317 39.2451 43.8771 39.1834 43.5953C39.1289 43.3205 39.0208 43.0148 38.8591 42.6782L38.2517 41.3632L30.3529 38.1015Z" fill="black"/>
<path d="M43.6883 22.2923L48.2333 32.4172L47.5608 32.9692L40.8256 28.3092C40.6728 28.2017 40.5263 28.102 40.3861 28.0101C40.2473 27.904 40.1149 27.8057 39.9888 27.7152C39.8564 27.6169 39.7405 27.5308 39.6412 27.4571C39.5356 27.3757 39.4433 27.3026 39.3644 27.238C39.4124 27.328 39.4667 27.4257 39.5274 27.5312C39.588 27.6366 39.6473 27.7561 39.7052 27.8897C39.7645 28.0093 39.8262 28.1397 39.8905 28.281C39.9547 28.4223 40.0221 28.5675 40.0927 28.7166L43.4561 36.3378L42.7952 36.8802L33.7745 30.4284L34.4702 29.8575L40.6288 34.3115C40.8084 34.4358 40.974 34.5586 41.1254 34.6801C41.2846 34.7953 41.4368 34.9097 41.5819 35.0235C41.7206 35.1295 41.8555 35.2388 41.9866 35.3511C42.1253 35.4572 42.2571 35.5625 42.3818 35.6672C42.2971 35.5167 42.2125 35.3663 42.1278 35.2158C42.0509 35.059 41.9708 34.8984 41.8875 34.7339C41.8056 34.5553 41.7237 34.3767 41.6418 34.1981C41.56 34.0195 41.4756 33.83 41.3887 33.6296L38.3546 26.6696L39.0271 26.1177L45.3364 30.448C45.5238 30.5659 45.7002 30.6863 45.8657 30.8092C46.0313 30.9321 46.1866 31.0504 46.3317 31.1642C46.4705 31.2702 46.6054 31.3794 46.7364 31.4918C46.8752 31.5978 47.0069 31.7032 47.1316 31.8078C47.0229 31.6124 46.9143 31.4169 46.8056 31.2215C46.6984 31.012 46.5886 30.7916 46.4764 30.5603C46.3642 30.329 46.2463 30.0829 46.1228 29.822L42.981 22.8727L43.6883 22.2923Z" fill="black"/>
<path d="M49.5602 21.7463C50.3213 21.266 51.0053 21.0944 51.6122 21.2317C52.2191 21.3689 52.7788 21.8435 53.2912 22.6553L56.1492 27.1838L55.6038 27.5281L54.7564 26.4665L54.7183 26.4905C54.7178 26.8456 54.6732 27.1871 54.5845 27.5151C54.499 27.8292 54.3429 28.1346 54.1163 28.4314C53.8928 28.7143 53.5697 28.9892 53.1468 29.2561C52.724 29.5229 52.3108 29.6832 51.9071 29.7369C51.4982 29.7822 51.1211 29.7187 50.7758 29.5463C50.4305 29.374 50.1298 29.0849 49.8736 28.679C49.452 28.0109 49.4066 27.33 49.7375 26.6364C50.063 25.9343 50.7341 25.227 51.7506 24.5144L52.9491 23.6871L52.6448 23.2051C52.2232 22.537 51.7917 22.1531 51.3503 22.0533C50.912 21.9396 50.4307 22.0483 49.9064 22.3792C49.5597 22.598 49.255 22.8553 48.9924 23.1512C48.7328 23.4332 48.4931 23.756 48.2731 24.1195L47.6846 23.6928C47.896 23.3346 48.16 22.9847 48.4765 22.6431C48.793 22.3014 49.1543 22.0025 49.5602 21.7463ZM52.163 24.9992C51.3356 25.5805 50.7932 26.1357 50.5358 26.6647C50.2731 27.1853 50.3045 27.7035 50.6301 28.2193C50.8916 28.6337 51.2228 28.8681 51.6237 28.9225C52.0193 28.9685 52.4412 28.85 52.8894 28.5671C53.6082 28.1135 54.0325 27.5678 54.1622 26.9302C54.3003 26.2872 54.1468 25.6037 53.7016 24.8795L53.2853 24.2199L52.163 24.9992Z" fill="black"/>
<path d="M58.6316 25.8511L57.8799 26.2585L52.4474 16.2361L53.1991 15.8287L58.6316 25.8511Z" fill="black"/>
<path d="M59.1339 19.2819C59.2683 19.5723 59.4046 19.8784 59.5426 20.2002C59.6764 20.5129 59.8102 20.8256 59.944 21.1383L59.9712 21.1257C60.0067 20.9881 60.0445 20.8438 60.0849 20.6929C60.121 20.5329 60.1637 20.3754 60.2131 20.2203C60.2583 20.0561 60.3031 19.9031 60.3477 19.7612L61.7041 15.4798L62.6297 15.0512L61.1949 19.4846L66.2281 22.179L65.3025 22.6076L60.8972 20.234L60.3315 21.8681L61.4913 24.3725L60.7291 24.7255L55.9386 14.3809L56.7008 14.0279L59.1339 19.2819Z" fill="black"/>
<path d="M70.5479 18.3761C70.7131 18.8267 70.7416 19.253 70.6333 19.6548C70.525 20.0567 70.2859 20.4213 69.916 20.7486C69.5427 21.0666 69.0462 21.3392 68.4265 21.5664C67.9101 21.7557 67.4329 21.8775 66.9947 21.9316C66.5566 21.9858 66.1726 21.9988 65.8427 21.9706L65.5587 21.196C65.9587 21.2411 66.3905 21.2425 66.8543 21.2003C67.3147 21.1486 67.7608 21.0436 68.1927 20.8852C68.9438 20.6098 69.4389 20.2898 69.678 19.9252C69.9137 19.5512 69.9523 19.1483 69.7939 18.7164C69.6907 18.4348 69.5265 18.234 69.3015 18.1141C69.0824 17.9814 68.7921 17.9015 68.4307 17.8743C68.0752 17.8342 67.6445 17.8217 67.1388 17.8367C66.6202 17.8458 66.1533 17.836 65.738 17.8072C65.3192 17.769 64.9648 17.6593 64.6747 17.4781C64.3846 17.2969 64.1586 16.9857 63.9968 16.5444C63.7765 15.9435 63.8485 15.3846 64.2127 14.8676C64.577 14.3506 65.1676 13.9423 65.9844 13.6428C66.435 13.4775 66.8683 13.3666 67.2843 13.3099C67.7096 13.2498 68.1076 13.2317 68.4785 13.2555L68.4395 14.0206C68.2208 14.005 67.982 14.0074 67.7232 14.0277C67.4609 14.0387 67.2009 14.0701 66.943 14.1221C66.6851 14.174 66.4341 14.2448 66.19 14.3343C65.5985 14.5512 65.1763 14.8231 64.9235 15.1502C64.6706 15.4772 64.6165 15.8379 64.7611 16.2322C64.8712 16.5327 65.0341 16.7445 65.2498 16.8678C65.4713 16.9783 65.7547 17.0395 66.0999 17.0514C66.4545 17.0598 66.877 17.0647 67.3674 17.0659C67.8637 17.0543 68.3213 17.0676 68.74 17.1058C69.1682 17.1405 69.5337 17.2515 69.8366 17.4386C70.149 17.6223 70.386 17.9348 70.5479 18.3761Z" fill="black"/>
<path d="M76.7916 7.77294C77.6617 7.58621 78.3944 7.52104 78.9895 7.57744C79.5845 7.63384 80.055 7.82438 80.4008 8.14905C80.7543 8.46184 80.995 8.91645 81.123 9.51287C81.209 9.91375 81.2095 10.2972 81.1244 10.6632C81.0491 11.0271 80.884 11.354 80.6292 11.6439C80.3722 11.9241 80.0321 12.1505 79.6089 12.3231L79.6184 12.3671C80.1457 12.346 80.6025 12.4014 80.9888 12.5333C81.3848 12.6631 81.7086 12.8851 81.9601 13.1993C82.2095 13.5037 82.3867 13.9004 82.4916 14.3893C82.6364 15.0639 82.6006 15.6597 82.3842 16.1766C82.1755 16.6816 81.8156 17.1015 81.3045 17.4362C80.801 17.759 80.1826 17.9991 79.4493 18.1564L76.1494 18.8645L73.9023 8.39294L76.7916 7.77294ZM77.9882 12.3487C78.9562 12.141 79.6147 11.8258 79.9638 11.4032C80.3129 10.9805 80.4172 10.4416 80.2766 9.78655C80.1318 9.11191 79.7982 8.67723 79.2757 8.48252C78.7532 8.28781 77.9836 8.29956 76.9667 8.51777L74.9135 8.95837L75.7443 12.8302L77.9882 12.3487ZM75.9017 13.5635L76.8427 17.9487L79.2333 17.4357C80.1915 17.2301 80.8632 16.8814 81.2486 16.3896C81.634 15.8978 81.747 15.2803 81.5875 14.5372C81.4826 14.0484 81.2901 13.6755 81.01 13.4185C80.7277 13.1518 80.3509 12.9923 79.8794 12.9401C79.408 12.8878 78.8349 12.9341 78.1603 13.0789L75.9017 13.5635Z" fill="black"/>
<path d="M87.1134 8.70121C88.0082 8.60425 88.698 8.75079 89.1828 9.14083C89.6677 9.53087 89.9618 10.2031 90.0652 11.1575L90.6421 16.4813L90.0009 16.5508L89.7063 15.2248L89.6616 15.2297C89.505 15.5484 89.3148 15.8356 89.0911 16.0912C88.8762 16.3357 88.6017 16.5415 88.2678 16.7085C87.9427 16.8644 87.5316 16.9693 87.0345 17.0231C86.5374 17.077 86.0958 17.0394 85.7096 16.9102C85.3224 16.7711 85.0116 16.5483 84.7772 16.2418C84.5428 15.9352 84.3998 15.5434 84.348 15.0662C84.2629 14.2808 84.5214 13.6492 85.1235 13.1716C85.7244 12.684 86.6381 12.3436 87.8644 12.1504L89.3045 11.934L89.243 11.3673C89.1579 10.5819 88.9391 10.0474 88.5865 9.7637C88.2427 9.46902 87.7627 9.35507 87.1463 9.42187C86.7386 9.46604 86.3519 9.56327 85.9859 9.71357C85.6289 9.85285 85.2717 10.0374 84.9143 10.2672L84.5732 9.62525C84.9206 9.39649 85.3115 9.19823 85.7459 9.03045C86.1804 8.86267 86.6362 8.75292 87.1134 8.70121ZM88.0217 12.767C87.023 12.9255 86.2918 13.1858 85.8281 13.5479C85.3633 13.9 85.1638 14.3793 85.2295 14.9857C85.2823 15.4729 85.4768 15.829 85.813 16.0541C86.1481 16.2692 86.5791 16.3483 87.1061 16.2912C87.9511 16.1996 88.572 15.8959 88.9688 15.3802C89.3755 14.8634 89.538 14.1819 89.4564 13.3358L89.3723 12.5603L88.0217 12.767Z" fill="black"/>
<path d="M93.1036 8.08482C93.107 8.3748 93.1056 8.68484 93.0994 9.01493C93.0931 9.33502 93.0812 9.60018 93.0636 9.8104L93.1236 9.8097C93.3182 9.34742 93.6388 8.96368 94.0853 8.65849C94.5417 8.34318 95.1199 8.18148 95.8198 8.17337C96.8397 8.16156 97.6387 8.50233 98.2168 9.19568C98.8048 9.87892 99.1066 10.9005 99.1224 12.2604C99.1321 13.1003 99.0106 13.8318 98.7577 14.4548C98.5149 15.0776 98.1406 15.567 97.6347 15.9229C97.1386 16.2686 96.5257 16.4458 95.7957 16.4542C95.1257 16.462 94.5742 16.3283 94.141 16.0533C93.7177 15.7782 93.4038 15.4418 93.1992 15.0442L93.1242 15.045L92.9742 16.3369L92.3442 16.3442L92.2122 4.94493L93.0671 4.93503L93.1036 8.08482ZM95.7083 8.90971C95.0984 8.91677 94.5999 9.05256 94.2129 9.31706C93.836 9.58144 93.5604 9.96465 93.3862 10.4667C93.222 10.9686 93.1442 11.5896 93.1528 12.3295L93.154 12.4345C93.1665 13.5145 93.366 14.3372 93.7526 14.9028C94.1491 15.4582 94.7923 15.7308 95.6822 15.7205C96.5421 15.7105 97.1837 15.4081 97.6068 14.8131C98.04 14.2181 98.2502 13.3706 98.2374 12.2706C98.2243 11.1407 98.0096 10.2982 97.5931 9.74294C97.1765 9.17773 96.5483 8.89998 95.7083 8.90971Z" fill="black"/>
<path d="M100.485 8.31073L101.397 8.38827L102.859 13.4956C102.944 13.7939 103.021 14.0714 103.089 14.3281C103.158 14.5848 103.218 14.8258 103.269 15.0509C103.321 15.2661 103.364 15.4655 103.399 15.649L103.443 15.6529C103.533 15.4296 103.652 15.1437 103.802 14.7952C103.953 14.4367 104.127 14.05 104.323 13.6351L106.598 8.83065L107.51 8.9082L103.126 17.9743C102.907 18.4174 102.674 18.794 102.427 19.1042C102.18 19.4143 101.9 19.6414 101.587 19.7854C101.272 19.9393 100.906 19.9985 100.488 19.9629C100.298 19.9468 100.125 19.917 99.9682 19.8735C99.8205 19.8409 99.6785 19.7987 99.5424 19.747L99.6034 19.0296C99.7304 19.0705 99.8578 19.1064 99.9857 19.1374C100.123 19.1791 100.276 19.2072 100.445 19.2216C100.724 19.2453 100.973 19.2063 101.193 19.1045C101.411 19.0127 101.611 18.854 101.79 18.6285C101.969 18.4129 102.138 18.1362 102.297 17.7985L102.935 16.4978L100.485 8.31073Z" fill="black"/>
<path d="M121.454 8.7434L116.437 18.643L115.585 18.467L114.975 10.2996C114.963 10.1132 114.948 9.93663 114.932 9.76982C114.927 9.59524 114.92 9.43046 114.911 9.27547C114.904 9.11068 114.898 8.9665 114.893 8.84291C114.89 8.70953 114.889 8.59185 114.89 8.48987C114.85 8.58375 114.808 8.68743 114.764 8.8009C114.72 8.91437 114.665 9.03561 114.597 9.16462C114.541 9.28586 114.479 9.41589 114.409 9.55469C114.34 9.69349 114.269 9.83719 114.198 9.98579L110.385 17.3925L109.548 17.2195L108.895 6.14833L109.776 6.33044L110.184 13.9199C110.2 14.1377 110.208 14.3437 110.209 14.5379C110.22 14.7341 110.226 14.9243 110.229 15.1087C110.234 15.2833 110.234 15.4569 110.229 15.6294C110.233 15.804 110.234 15.9727 110.231 16.1354C110.295 15.975 110.359 15.8146 110.423 15.6542C110.496 15.4958 110.571 15.3325 110.646 15.1643C110.734 14.9884 110.821 14.8124 110.909 14.6365C110.996 14.4605 111.09 14.2758 111.192 14.0823L114.697 7.34722L115.549 7.52326L116.148 15.1522C116.174 15.372 116.191 15.5849 116.2 15.7909C116.208 15.9969 116.214 16.1921 116.216 16.3764C116.221 16.551 116.221 16.7246 116.216 16.8971C116.221 17.0717 116.222 17.2404 116.219 17.4031C116.302 17.1958 116.386 16.9884 116.47 16.7811C116.565 16.566 116.668 16.3421 116.777 16.1094C116.886 15.8767 117.004 15.6303 117.129 15.3703L120.558 8.55826L121.454 8.7434Z" fill="black"/>
<path d="M125.551 12.9566C126.403 13.2472 126.966 13.6719 127.24 14.2304C127.515 14.7889 127.497 15.5225 127.187 16.431L125.457 21.499L124.847 21.2907L125.141 19.9646L125.098 19.95C124.821 20.1726 124.528 20.3523 124.217 20.4892C123.919 20.6199 123.583 20.6903 123.21 20.7003C122.849 20.704 122.432 20.6251 121.959 20.4636C121.486 20.3021 121.102 20.0812 120.806 19.8008C120.514 19.5109 120.327 19.1775 120.244 18.8006C120.162 18.4237 120.198 18.0081 120.353 17.5539C120.608 16.8062 121.109 16.3433 121.857 16.1653C122.608 15.9777 123.58 16.0558 124.773 16.3995L126.169 16.8127L126.353 16.2733C126.608 15.5256 126.636 14.9487 126.437 14.5425C126.25 14.13 125.863 13.8237 125.276 13.6234C124.888 13.491 124.497 13.4155 124.101 13.3968C123.719 13.372 123.317 13.3881 122.896 13.4451L122.859 12.7191C123.27 12.6588 123.708 12.6445 124.173 12.6763C124.638 12.7081 125.097 12.8015 125.551 12.9566ZM124.654 17.0248C123.682 16.7459 122.91 16.6724 122.336 16.8043C121.766 16.9267 121.383 17.2766 121.186 17.8539C121.027 18.3176 121.053 18.7226 121.262 19.0688C121.475 19.4055 121.832 19.6595 122.334 19.8307C123.138 20.1052 123.829 20.0928 124.407 19.7933C124.994 19.4971 125.429 18.9484 125.713 18.1471L125.965 17.4089L124.654 17.0248Z" fill="black"/>
<path d="M128.174 22.641L127.385 22.3109L131.787 11.7949L132.576 12.1251L128.174 22.641Z" fill="black"/>
<path d="M133.634 18.9267C133.492 19.2135 133.339 19.5115 133.175 19.8207C133.015 20.121 132.855 20.4213 132.695 20.7215L132.722 20.7348C132.851 20.6762 132.988 20.6153 133.13 20.5521C133.278 20.48 133.427 20.4145 133.579 20.3558C133.735 20.2881 133.883 20.2271 134.021 20.1729L138.207 18.5464L139.122 18.9989L134.768 20.6597L135.823 26.2703L134.909 25.8178L133.997 20.8975L132.369 21.4809L131.145 23.9543L130.392 23.5817L135.45 13.3651L136.203 13.7378L133.634 18.9267Z" fill="black"/>
<path d="M141.428 27.2098C141.181 27.6212 140.867 27.9109 140.486 28.0788C140.105 28.2466 139.671 28.2893 139.184 28.2067C138.702 28.1156 138.179 27.9 137.613 27.5602C137.141 27.277 136.747 26.9818 136.43 26.6746C136.113 26.3675 135.862 26.0767 135.677 25.8022L136.102 25.095C136.317 25.4346 136.587 25.7718 136.911 26.1064C137.24 26.4324 137.602 26.7138 137.997 26.9507C138.682 27.3627 139.242 27.5473 139.676 27.5047C140.115 27.4535 140.453 27.2307 140.69 26.8364C140.844 26.5792 140.898 26.3254 140.85 26.075C140.816 25.8212 140.696 25.545 140.49 25.2465C140.298 24.9445 140.038 24.6014 139.709 24.2171C139.376 23.819 139.091 23.4493 138.853 23.1079C138.62 22.7579 138.483 22.4131 138.442 22.0735C138.401 21.7339 138.501 21.3627 138.743 20.9598C139.073 20.4112 139.553 20.1164 140.184 20.0756C140.815 20.0348 141.504 20.2384 142.25 20.6864C142.661 20.9336 143.019 21.2013 143.324 21.4896C143.638 21.783 143.902 22.0815 144.116 22.3852L143.496 22.8351C143.371 22.6549 143.219 22.4705 143.041 22.2817C142.868 22.0844 142.68 21.9017 142.478 21.7335C142.276 21.5653 142.063 21.4143 141.84 21.2804C141.3 20.956 140.823 20.798 140.41 20.8063C139.997 20.8147 139.682 20.9989 139.466 21.3589C139.301 21.6332 139.238 21.893 139.278 22.1383C139.331 22.3801 139.461 22.6391 139.668 22.9154C139.884 23.1967 140.145 23.5287 140.452 23.9113C140.773 24.2905 141.05 24.6551 141.283 25.0051C141.524 25.3602 141.667 25.7144 141.712 26.0677C141.765 26.4262 141.67 26.8069 141.428 27.2098Z" fill="black"/>
<path d="M154.132 25.8328C154.822 26.3949 155.331 26.9257 155.659 27.4253C155.988 27.9249 156.133 28.4111 156.096 28.884C156.073 29.3554 155.869 29.8276 155.484 30.3006C155.225 30.6185 154.926 30.8587 154.587 31.0212C154.256 31.1901 153.898 31.2658 153.512 31.2483C153.133 31.2231 152.744 31.0994 152.344 30.8772L152.316 30.9121C152.662 31.3103 152.905 31.7013 153.043 32.0852C153.19 32.4754 153.219 32.8669 153.131 33.2597C153.05 33.6447 152.851 34.0311 152.535 34.4187C152.1 34.9537 151.612 35.2984 151.074 35.453C150.549 35.6061 149.997 35.5879 149.416 35.3985C148.849 35.2076 148.275 34.8753 147.693 34.4016L145.077 32.2701L151.841 23.9665L154.132 25.8328ZM151.31 29.6288C152.078 30.254 152.736 30.5707 153.284 30.5786C153.832 30.5866 154.318 30.3309 154.741 29.8114C155.177 29.2764 155.307 28.7442 155.132 28.2148C154.957 27.6854 154.467 27.0922 153.66 26.4354L152.032 25.1091L149.531 28.1793L151.31 29.6288ZM149.057 28.7608L146.225 32.238L148.12 33.7823C148.88 34.4012 149.573 34.7072 150.197 34.7002C150.822 34.6933 151.374 34.3952 151.854 33.8059C152.17 33.4183 152.341 33.0348 152.366 32.6555C152.398 32.2685 152.286 31.8747 152.032 31.4742C151.778 31.0737 151.383 30.6555 150.848 30.2197L149.057 28.7608Z" fill="black"/>
<path d="M159.344 33.9827C159.983 34.6168 160.303 35.245 160.305 35.8672C160.308 36.4895 159.971 37.1413 159.294 37.8225L155.522 41.6228L155.064 41.1684L155.908 40.1047L155.877 40.073C155.53 40.152 155.187 40.1851 154.848 40.1722C154.523 40.1592 154.19 40.0756 153.85 39.9212C153.524 39.7668 153.184 39.5135 152.829 39.1613C152.474 38.809 152.225 38.4422 152.083 38.0609C151.947 37.6725 151.924 37.2907 152.015 36.9156C152.105 36.5405 152.32 36.1826 152.658 35.842C153.215 35.2813 153.868 35.0845 154.618 35.2515C155.375 35.4114 156.215 35.9068 157.137 36.7379L158.212 37.7204L158.614 37.3159C159.17 36.7552 159.448 36.2487 159.446 35.7961C159.459 35.3435 159.245 34.8988 158.805 34.462C158.514 34.1731 158.195 33.9339 157.848 33.7442C157.515 33.5545 157.146 33.3932 156.743 33.2603L157.027 32.5911C157.423 32.7169 157.823 32.8958 158.227 33.1277C158.631 33.3595 159.003 33.6446 159.344 33.9827ZM156.757 37.2484C156.005 36.5723 155.343 36.1681 154.769 36.0358C154.203 35.8965 153.705 36.0432 153.275 36.4761C152.93 36.8239 152.776 37.1992 152.813 37.6021C152.857 37.998 153.067 38.3826 153.443 38.756C154.046 39.3548 154.673 39.646 155.323 39.6295C155.981 39.62 156.613 39.3172 157.219 38.721L157.768 38.1675L156.757 37.2484Z" fill="black"/>
<path d="M163.75 38.4278C163.527 38.6126 163.284 38.8062 163.024 39.0088C162.771 39.205 162.557 39.3623 162.382 39.4807L162.421 39.527C162.903 39.388 163.403 39.3963 163.921 39.552C164.453 39.7089 164.942 40.0572 165.388 40.5967C166.038 41.3828 166.274 42.2185 166.098 43.1038C165.936 43.9905 165.331 44.8671 164.283 45.7338C163.635 46.269 162.99 46.634 162.346 46.8287C161.709 47.0311 161.093 47.0473 160.499 46.8772C159.918 46.7085 159.395 46.3429 158.93 45.7803C158.503 45.2639 158.26 44.7508 158.202 44.241C158.15 43.7389 158.215 43.2833 158.396 42.8743L158.348 42.8165L157.249 43.5114L156.847 43.0258L165.633 35.7616L166.178 36.4206L163.75 38.4278ZM164.745 40.9725C164.356 40.5024 163.937 40.1999 163.488 40.065C163.046 39.9378 162.575 39.9642 162.074 40.144C161.581 40.3316 161.049 40.6612 160.479 41.1327L160.398 41.1996C159.565 41.8878 159.05 42.56 158.853 43.216C158.67 43.8734 158.862 44.5451 159.429 45.231C159.977 45.8938 160.616 46.2029 161.344 46.1584C162.08 46.1215 162.871 45.7526 163.719 45.0517C164.59 44.3316 165.11 43.6352 165.281 42.9624C165.459 42.2832 165.28 41.6199 164.745 40.9725Z" fill="black"/>
<path d="M168.126 44.2223L168.64 44.9795L165.592 49.3306C165.413 49.5845 165.246 49.8188 165.09 50.0336C164.933 50.2484 164.784 50.4465 164.641 50.628C164.507 50.8038 164.379 50.9629 164.258 51.1053L164.283 51.1425C164.513 51.0714 164.81 50.9844 165.176 50.8816C165.549 50.7733 165.959 50.6646 166.404 50.5556L171.57 49.2996L172.084 50.0568L162.279 52.3567C161.798 52.466 161.358 52.5222 160.962 52.5253C160.565 52.5285 160.212 52.4536 159.903 52.3008C159.586 52.1536 159.309 51.9061 159.074 51.5585C158.967 51.4013 158.881 51.2481 158.816 51.0988C158.748 50.9634 158.692 50.8266 158.646 50.6883L159.242 50.2841C159.29 50.4085 159.343 50.5302 159.399 50.649C159.453 50.7817 159.527 50.9184 159.623 51.0591C159.78 51.2908 159.967 51.4599 160.184 51.5663C160.393 51.6784 160.642 51.7332 160.93 51.7309C161.211 51.7343 161.532 51.6915 161.895 51.6026L163.307 51.2793L168.126 44.2223Z" fill="black"/>
<path d="M180.912 60.6761L170.064 63.0212L169.664 62.2488L175.62 56.6272C175.757 56.5 175.885 56.3773 176.004 56.2593C176.136 56.1456 176.26 56.0364 176.374 55.9319C176.498 55.8227 176.606 55.7272 176.699 55.6454C176.801 55.5589 176.891 55.4838 176.971 55.42C176.873 55.4483 176.766 55.4812 176.65 55.5186C176.534 55.5561 176.405 55.5893 176.263 55.6182C176.133 55.6514 175.993 55.6847 175.841 55.7183C175.69 55.7518 175.534 55.7876 175.373 55.8257L167.22 57.5345L166.827 56.7755L175.01 49.2898L175.424 50.0889L169.789 55.1892C169.63 55.3391 169.476 55.4756 169.325 55.5985C169.18 55.7304 169.036 55.8554 168.895 55.9738C168.762 56.0875 168.627 56.1968 168.49 56.3017C168.358 56.4155 168.227 56.5225 168.099 56.6227C168.264 56.5711 168.429 56.5195 168.593 56.4679C168.763 56.4252 168.936 56.3802 169.115 56.3329C169.306 56.2898 169.498 56.2468 169.69 56.2037C169.881 56.1607 170.084 56.1175 170.298 56.0741L177.736 54.5501L178.137 55.3225L172.592 60.596C172.437 60.7548 172.283 60.9024 172.128 61.0389C171.974 61.1753 171.826 61.3027 171.684 61.421C171.552 61.5348 171.417 61.6441 171.28 61.749C171.147 61.8627 171.017 61.9697 170.889 62.07C171.103 62.0042 171.316 61.9385 171.53 61.8728C171.757 61.8113 171.996 61.7497 172.245 61.6879C172.495 61.6261 172.76 61.5619 173.041 61.4952L180.491 59.8637L180.912 60.6761Z" fill="black"/>
<path d="M180.1 66.2325C180.413 67.0763 180.44 67.781 180.181 68.3466C179.921 68.9121 179.341 69.3619 178.441 69.6957L173.421 71.5582L173.196 70.9534L174.41 70.3433L174.394 70.3011C174.047 70.2273 173.722 70.1132 173.419 69.9588C173.13 69.8103 172.863 69.5945 172.619 69.3116C172.389 69.0346 172.186 68.6617 172.012 68.1929C171.838 67.7241 171.767 67.2867 171.798 66.8807C171.838 66.4711 171.978 66.1153 172.217 65.813C172.457 65.5107 172.802 65.2761 173.252 65.1091C173.993 64.8344 174.668 64.9304 175.279 65.3972C175.899 65.8606 176.452 66.6631 176.94 67.8049L177.502 69.1482L178.037 68.9499C178.777 68.6752 179.242 68.3321 179.431 67.9208C179.632 67.5154 179.625 67.022 179.41 66.4407C179.267 66.0563 179.078 65.7051 178.843 65.3871C178.62 65.075 178.354 64.7738 178.044 64.4836L178.583 63.9957C178.89 64.2765 179.177 64.607 179.447 64.9872C179.716 65.3674 179.933 65.7825 180.1 66.2325ZM176.381 68.1083C175.982 67.1788 175.551 66.5335 175.087 66.1725C174.631 65.8081 174.118 65.7319 173.546 65.9441C173.087 66.1145 172.789 66.3903 172.653 66.7713C172.526 67.1489 172.555 67.5862 172.74 68.0831C173.035 68.88 173.482 69.4077 174.079 69.6662C174.679 69.934 175.38 69.9248 176.18 69.6385L176.912 69.3673L176.381 68.1083Z" fill="black"/>
<path d="M174.253 74.3932L174.011 73.5732L184.943 70.3421L185.186 71.162L174.253 74.3932Z" fill="black"/>
<path d="M180.61 76.3999C180.298 76.4706 179.97 76.5398 179.626 76.6074C179.293 76.6727 178.959 76.7381 178.625 76.8035L178.632 76.8328C178.759 76.8962 178.892 76.9635 179.031 77.0345C179.18 77.1033 179.325 77.1781 179.466 77.2588C179.618 77.3374 179.758 77.4133 179.887 77.4865L183.79 79.709L184.015 80.7038L179.98 78.3728L176.292 82.7305L176.067 81.7358L179.31 77.9249L177.83 77.0297L175.139 77.6396L174.953 76.8204L186.071 74.3012L186.257 75.1204L180.61 76.3999Z" fill="black"/>
<path d="M179.148 88.1071C178.673 88.1734 178.25 88.1112 177.88 87.9205C177.51 87.7298 177.204 87.4191 176.962 86.9884C176.73 86.5564 176.569 86.0135 176.478 85.3598C176.402 84.8151 176.383 84.3229 176.423 83.8832C176.463 83.4435 176.531 83.0654 176.628 82.7489L177.445 82.6349C177.317 83.0163 177.224 83.4382 177.167 83.9004C177.121 84.3613 177.129 84.8196 177.193 85.2751C177.303 86.0675 177.512 86.619 177.817 86.9297C178.133 87.239 178.519 87.3619 178.975 87.2983C179.272 87.2568 179.503 87.1387 179.667 86.9441C179.843 86.758 179.983 86.4912 180.086 86.1436C180.2 85.8046 180.303 85.3863 180.395 84.8888C180.496 84.38 180.604 83.9256 180.72 83.5258C180.846 83.1246 181.028 82.8013 181.266 82.556C181.504 82.3107 181.856 82.1555 182.322 82.0906C182.956 82.0021 183.487 82.1905 183.915 82.6557C184.344 83.121 184.618 83.7844 184.738 84.6461C184.805 85.1215 184.822 85.5684 184.789 85.9869C184.758 86.4153 184.692 86.8083 184.59 87.1657L183.85 86.9661C183.912 86.7555 183.96 86.5216 183.995 86.2644C184.039 86.0057 184.064 85.7449 184.067 85.4818C184.071 85.2188 184.055 84.9585 184.019 84.701C183.932 84.0771 183.755 83.607 183.489 83.2908C183.223 82.9745 182.881 82.8454 182.466 82.9035C182.149 82.9477 181.907 83.0622 181.741 83.2469C181.586 83.4402 181.467 83.7043 181.382 84.0392C181.299 84.384 181.205 84.7959 181.1 85.275C181.007 85.7626 180.897 86.207 180.771 86.6083C180.647 87.0194 180.461 87.3533 180.214 87.6099C179.969 87.8764 179.613 88.0421 179.148 88.1071Z" fill="black"/>
</svg>
